<?xml version="1.0" encoding="utf-8"?>
<svg version="1.1" id="layer-01" xmlns="http://www.w3.org/2000/svg" xmlns:xlink="http://www.w3.org/1999/xlink" x="0px" y="0px"
	 viewBox="0 0 1200 1200" style="enable-background:new 0 0 1200 1200;" xml:space="preserve">
<style type="text/css">
	.st0{fill:url(#SVGID_1_);}
	.st1{display:none;fill:#DBD7CE;}
	.st2{fill:#FFFFFF;}
</style>
<linearGradient id="SVGID_1_" gradientUnits="userSpaceOnUse" x1="-0.4445" y1="268.3747" x2="1172.6248" y2="916.2622" gradientTransform="matrix(1 0 0 -1 0 1200)">
	<stop  offset="0" style="stop-color:#31A89F"/>
	<stop  offset="0.4903" style="stop-color:#57B66C"/>
	<stop  offset="1" style="stop-color:#7BC43B"/>
</linearGradient>
<path class="st0" d="M1029.2,1200H170.8C76.9,1200,0,1123.1,0,1029.2V170.9C0,76.9,76.9,0,170.8,0h858.3
	c94,0,170.8,76.9,170.8,170.8v858.3C1200,1123.1,1123.1,1200,1029.2,1200z"/>
<rect class="st1" width="1200" height="1200"/>
<path class="st2" d="M602.7,1009.7c-0.1,2-0.9,7.8-1.7,7.8s-1.6-5.8-1.7-7.8c-3.6-52-6.9-156.5-12.7-208.5
	c-0.5-5.1-2.5-15.6-4.6-20.1c-1.3-2.9-13-18.4-13-18.4h58.9c0,0-11,15-13,18.4c-1.9,3.2-4.1,15-4.6,20.1
	C604.5,853.2,606.2,957.7,602.7,1009.7z"/>
<path class="st2" d="M455.2,183.2c-0.7,1.3,0.7,1.5,36.2,5.6c32.7,3.8,54.4,13.4,75.7,33.7c24.7,23.4,37.6,51,37.6,80.3
	c0,23.7-8.8,45.1-25.5,62.1c-10.2,10.3-13.3,12.3-37.2,24.5c-19.9,10.2-26.2,13.7-38.3,21.3c-54.2,34-93,89.2-107,152.5
	c-5.8,26.6-5.5,13.8-5.3,210.6c0.3,199.1,0.9,244,3.3,244c0.4,0,1-14.5,1.3-29.3c0.8-31.9,1.9-45.6,5.3-70.2
	c2.5-18,7.9-41.4,12.7-55.5c9.3-27,24.4-55,43.5-80.5c9.6-12.8,31.4-35.2,46.7-48c35-29.1,61.7-39.7,44-30
	c3.3-1.8,10.4-5.7,15.7-8.6c5.4-2.9,16.4-8.8,24.5-13c8.2-4.2,16.6-8.7,18.8-9.9s8.1-4.4,13-7c37.3-19.8,63.7-39.2,81.5-60
	c26.3-30.5,41.4-62.6,49.1-104c2-10.5,2.1-16.4,3-131.5c1-132.1,0.9-130.3,7.1-144.5c6.9-15.9,18.5-27.9,33.8-35.2
	c5.2-2.5,10.5-5,11.8-5.6c1.2-0.6,2.2-1.4,2.2-1.9C808.7,181.9,456,182.1,455.2,183.2z M668.8,283.4c-14.2,0-25.7-11.5-25.7-25.7
	c0-14.2,11.5-25.7,25.7-25.7s25.7,11.5,25.7,25.7C694.6,271.8,683,283.4,668.8,283.4z"/>
</svg>
